<?xml version="1.0" standalone="no"?><!DOCTYPE svg PUBLIC "-//W3C//DTD SVG 1.1//EN" "http://www.w3.org/Graphics/SVG/1.1/DTD/svg11.dtd"><svg t="1613878433995" class="icon" viewBox="0 0 1024 1024" version="1.1" xmlns="http://www.w3.org/2000/svg" p-id="5568" xmlns:xlink="http://www.w3.org/1999/xlink" width="200" height="200"><defs><style type="text/css"></style></defs><path d="M744.24695942 192.94838553V828.87322289c0 63.95950022-51.86204636 115.82154659-115.83049275 115.82154658h-436.5505673c-63.96173676 0-115.83049275-51.86204636-115.83049275-115.82154658V191.83906087c0-63.96844638 51.86875598-115.83720238 115.83049275-115.83720237h436.5505673c63.96732812 0 115.83049275 51.86875598 115.83049275 115.8360841v1.11044293z m0 800.68191553v17.88338714H877.88703345c73.80028354 0 133.64231056-59.83531738 133.64231055-133.64007401V343.29318924c0-73.8058749-59.84202701-133.64231056-133.64231055-133.64231056h-66.82562837V142.83643303c0-73.81705761-59.83643567-133.64902019-133.63560094-133.64902019H142.8565619c-73.8058749 0-133.64231056 59.83196258-133.64231056 133.64902019v735.03829942c0 73.80475662 59.83643567 133.64007403 133.64231056 133.64007402H677.42580414c24.344756 0 47.16307233-6.52622857 66.82115528-17.88338713zM944.70930699 828.87322289c0 63.95950022-51.85421846 115.82042831-115.82266486 115.82042831h-35.69520494c11.3750509-19.67038394 17.88450541-42.48199062 17.88450541-66.82003701V276.46979742h17.81069953c63.96732812 0 115.82266486 51.85086365 115.82266486 115.8249014v436.57628752z m-735.03158981-101.34888548c0 18.44364083 14.96022719 16.69578352 33.40610455 16.69578351h334.11024949c18.45817836 0 33.41169592 1.74226597 33.41169592-16.69578351 0-18.45817836-14.95351756-50.12537176-33.41169592-50.12537177H243.08382173c-18.44587737 0-33.40610455 31.66719342-33.40610455 50.1242535z m0-200.46793893c0 18.44252257 14.96022719 16.7002566 33.40610455 16.70025661h334.11024949c18.45817836 0 33.41169592 1.74226597 33.41169592-16.70025661 0-18.452587-14.95351756-50.12089867-33.41169592-50.12089869H243.08382173c-18.44587737 0-33.40610455 31.66831168-33.40610455 50.12089869z m0-200.46458412c0 18.44699564 14.96022719 16.70920276 33.40610455 16.70920278h334.11024949c18.45817836 0 33.41169592 1.73779287 33.41169592-16.70920278 0-18.45146873-14.95351756-50.1197804-33.41169592-50.1197804H243.08382173c-18.44587737 0-33.40610455 31.66831168-33.40610455 50.1197804z m0 0" p-id="5569"></path></svg>