<?xml version="1.0" standalone="no"?><!DOCTYPE svg PUBLIC "-//W3C//DTD SVG 1.1//EN" "http://www.w3.org/Graphics/SVG/1.1/DTD/svg11.dtd"><svg t="1613878314837" class="icon" viewBox="0 0 1024 1024" version="1.1" xmlns="http://www.w3.org/2000/svg" p-id="4823" xmlns:xlink="http://www.w3.org/1999/xlink" width="200" height="200"><defs><style type="text/css"></style></defs><path d="M549.309997 967.425004c0-10.852999-0.226-21.931999 0-32.784998 0.45-8.591999-2.027-11.304999-11.483999-10.626999-202.429986 11.304999-388.197973-111.243992-458.226968-301.84998C-18.125964 355.133046 146.025025 62.330066 423.890006 8.516069c252.642983-48.838997 496.504966 117.347992 541.089963 371.489975 25.443998 144.93199-11.483999 274.489981-106.506993 387.089974-4.053 4.749-7.430999 10.400999-11.258999 15.374999-15.086999 20.575999-43.682997 23.740998-62.597996 7.235999-19.139999-16.731999-20.039999-45.220997-1.801-63.082996 58.769996-57.656996 92.769994-128.201991 103.803993-209.146985 18.463999-135.209991-22.966998-250.297983-123.844991-341.643977-80.611994-73.257995-177.435988-104.911993-285.969981-94.737994-174.507988 16.279999-310.962979 143.80299-341.360976 316.772979-35.802998 203.267986 103.129993 402.465972 306.234979 439.09497 30.172998 5.426 60.345996 7.460999 90.744994 6.103999 15.761999-0.678 16.436999-1.808 16.211998-17.861998-0.225-16.957999-0.9-33.914998-0.675999-50.872997 0.45-28.262998 15.762999-36.629997 39.405997-21.479998 41.205997 26.679998 80.611994 56.525996 119.791992 86.145994 7.879999 5.878 14.635999 13.113999 18.913998 22.157998 8.330999 17.183999 6.755 33.462998-5.403999 48.611997-14.860999 18.766999-34.450998 32.559998-53.139997 46.803997-26.345998 20.122999-53.366996 38.889997-80.161994 58.334996-1.577 1.13-3.153 2.035-4.729 2.939999-7.655999 4.07-15.536999 9.042999-24.318998 4.07-8.780999-4.975-8.555999-14.244999-8.781-23.062998-0.226-10.626999 0-21.027999 0-31.654998 0 0.226-0.226 0.226-0.226 0.226z m-85.466994-389.660973c5.735 0 7.782999-1.678 7.783-7.762-0.205-25.804998-0.205-51.819996 0.205-77.623995 0.205-7.971999-3.891-8.181999-9.626-7.971999-36.250998 0.42-71.039995 6.26-108.549992 6.259999-30.979998 0-45.466997-26.399998-35.840998-56.399996 2.662-7.972999 6.144-15.524999 11.264-22.238998 6.76-8.809999 14.746999-13.215999 26.215998-13.006999 35.841998 0.63 71.683995 0 107.524992 0.42 7.169 0 8.806999-2.098 9.422-9.44 1.638-16.783999-3.482-29.371998-15.155999-41.749997-31.745998-33.566998-62.262996-68.811995-92.983994-103.427993-12.902999-14.474999-22.119998-30.629998-15.974999-51.189996 5.12-17.201999 19.251999-25.593998 36.455998-22.236999 15.769999 3.147 28.263998 11.537999 39.118997 23.286999 28.467998 31.049998 57.345996 61.888996 85.609994 93.147993 5.12 5.664 7.577999 6.294 13.312999 0.63 33.383998-33.147998 67.177995-65.665996 100.970993-98.183993 11.879999-11.537999 25.601998-18.880999 42.805997-14.684999 24.371998 5.874 34.202998 31.048998 20.479999 52.237996-3.686 5.874-8.395999 11.119999-13.106999 16.153999-36.251998 38.601997-72.092995 77.413995-108.959993 115.385992-10.649999 11.119999-5.939 23.496998-6.142999 35.454998-0.205 4.826 5.939 3.147 9.419999 3.147 33.793998 0.21 67.587995 0 101.381993 0 26.215998 0 47.310997 20.769999 48.334997 47.622997 0.82 21.399999-11.878999 36.713997-32.973998 37.343997-38.299997 1.049-76.394995 1.258-114.693992 1.049-9.216999 0-12.288999 2.307-12.083999 12.167999 0.615 23.705998 0.205 47.622997-0.205 71.329995-0.205 7.341999 1.844 9.649999 9.011999 9.65 33.179998-0.42 66.153995-0.21 99.332993-0.21 4.096 0 8.191999 0 12.288 0.21 15.565999 0.839 28.878998 6.084 35.636997 21.817998 6.76 16.153999 4.506 31.469998-5.529999 45.524997-7.168 10.069999-16.793999 14.475999-29.081998 14.475999-37.275997-0.21-74.346995 0.21-111.621993-0.21-9.011999-0.21-12.083999 1.888-11.059999 11.748999 1.23 10.698999 0.82 21.607999 0.615 32.517998-0.41 24.544998-18.023999 43.006997-40.961997 43.635997-25.601998 0.63-42.805997-14.264999-44.853997-40.069997-1.024-12.796999-1.229-25.804998-1.024-38.811998 0.205-7.133-2.253-8.810999-8.807-8.810999-37.479997 0.21-75.164995 0.21-112.644992 0.21-23.143998 0-40.552997-17.832999-40.757997-41.749997-0.204-22.446998 17.204999-39.649997 40.142997-39.859997h55.912996c19.866999 0 39.528997-0.21 59.394996 0.21z" p-id="4824"></path></svg>