<?xml version="1.0" standalone="no"?><!DOCTYPE svg PUBLIC "-//W3C//DTD SVG 1.1//EN" "http://www.w3.org/Graphics/SVG/1.1/DTD/svg11.dtd"><svg t="1614045550897" class="icon" viewBox="0 0 1024 1024" version="1.1" xmlns="http://www.w3.org/2000/svg" p-id="1634" xmlns:xlink="http://www.w3.org/1999/xlink" width="200" height="200"><defs><style type="text/css"></style></defs><path d="M1024.2 511.8c0 98.9-211.2 309.7-512.1 309.7C218.9 821.4 0 614.3 0 511.8c0-102.3 219.7-309.2 512.1-309.2 303.3 0.2 512.1 206.9 512.1 309.2zM512.8 259.2c-136.2 0-246.8 113.4-246.8 253S376.6 765 512.8 765s246.8-113.4 246.8-252.8c0-139.8-110.7-253-246.8-253z" p-id="1635"></path><path d="M512.1 383.9c-70.8 0-128.1 57.3-128.1 128.1 0 70.5 57.3 128.1 128.1 128.1S640.2 582.8 640.2 512s-57.3-128.1-128.1-128.1z" p-id="1636"></path></svg>